<?xml version="1.0" encoding="UTF-8" standalone="no"?>
<!DOCTYPE svg PUBLIC "-//W3C//DTD SVG 1.1//EN"
 "http://www.w3.org/Graphics/SVG/1.1/DTD/svg11.dtd">
<!-- Generated by graphviz version 2.38.0 (20140413.2041)
 -->
<!-- Title: %3 Pages: 1 -->
<svg width="327pt" height="254pt"
 viewBox="0.00 0.00 327.00 254.00" xmlns="http://www.w3.org/2000/svg" xmlns:xlink="http://www.w3.org/1999/xlink">
<g id="graph0" class="graph" transform="scale(1 1) rotate(0) translate(4 250)">
<title>%3</title>
<polygon fill="white" stroke="none" points="-4,4 -4,-250 323,-250 323,4 -4,4"/>
<g id="clust1" class="cluster"><title>cluster_0</title>
<polygon fill="none" stroke="black" points="8,-8 8,-83 311,-83 311,-8 8,-8"/>
<text text-anchor="middle" x="159.5" y="-67.8" font-family="Times,serif" font-size="14.00">nuget</text>
</g>
<g id="clust2" class="cluster"><title>cluster_1</title>
<polygon fill="none" stroke="black" points="52,-91 52,-238 214,-238 214,-91 52,-91"/>
<text text-anchor="middle" x="133" y="-222.8" font-family="Times,serif" font-size="14.00">Solution1</text>
</g>
<!-- log4net -->
<g id="node1" class="node"><title>log4net</title>
<polygon fill="none" stroke="black" points="302.5,-52 245.5,-52 245.5,-16 302.5,-16 302.5,-52"/>
<text text-anchor="middle" x="274" y="-30.3" font-family="Times,serif" font-size="14.00">log4net</text>
</g>
<!-- Newtonsoft.Json -->
<g id="node2" class="node"><title>Newtonsoft.Json</title>
<polygon fill="none" stroke="black" points="227.5,-52 120.5,-52 120.5,-16 227.5,-16 227.5,-52"/>
<text text-anchor="middle" x="174" y="-30.3" font-family="Times,serif" font-size="14.00">Newtonsoft.Json</text>
</g>
<!-- FSharp.Core -->
<g id="node3" class="node"><title>FSharp.Core</title>
<polygon fill="none" stroke="black" points="102,-52 16,-52 16,-16 102,-16 102,-52"/>
<text text-anchor="middle" x="59" y="-30.3" font-family="Times,serif" font-size="14.00">FSharp.Core</text>
</g>
<!-- WindowsApp1 -->
<g id="node4" class="node"><title>WindowsApp1</title>
<polygon fill="#00539c" stroke="#00539c" points="205.5,-207 106.5,-207 106.5,-171 205.5,-171 205.5,-207"/>
<text text-anchor="middle" x="156" y="-185.3" font-family="Times,serif" font-size="14.00" fill="white">WindowsApp1</text>
</g>
<!-- WindowsApp1&#45;&gt;log4net -->
<g id="edge1" class="edge"><title>WindowsApp1&#45;&gt;log4net</title>
<path fill="none" stroke="black" d="M188.804,-170.805C203.567,-161.755 220.271,-149.512 232,-135 249.496,-113.353 260.79,-83.3653 267.211,-61.8855"/>
<polygon fill="black" stroke="black" points="270.625,-62.6731 269.977,-52.0981 263.889,-60.769 270.625,-62.6731"/>
</g>
<!-- WindowsApp1&#45;&gt;Newtonsoft.Json -->
<g id="edge2" class="edge"><title>WindowsApp1&#45;&gt;Newtonsoft.Json</title>
<path fill="none" stroke="black" d="M183.8,-170.872C195.771,-161.837 208.495,-149.587 215,-135 222.964,-117.14 221.077,-109.587 215,-91 211.33,-79.7762 204.462,-68.9391 197.382,-59.8374"/>
<polygon fill="black" stroke="black" points="199.975,-57.4815 190.905,-52.0053 194.581,-61.9423 199.975,-57.4815"/>
</g>
<!-- Library1 -->
<g id="node5" class="node"><title>Library1</title>
<polygon fill="#388a34" stroke="#388a34" points="206,-135 142,-135 142,-99 206,-99 206,-135"/>
<text text-anchor="middle" x="174" y="-113.3" font-family="Times,serif" font-size="14.00" fill="white">Library1</text>
</g>
<!-- WindowsApp1&#45;&gt;Library1 -->
<g id="edge3" class="edge"><title>WindowsApp1&#45;&gt;Library1</title>
<path fill="none" stroke="black" d="M160.449,-170.697C162.455,-162.898 164.869,-153.509 167.101,-144.829"/>
<polygon fill="black" stroke="black" points="170.501,-145.661 169.602,-135.104 163.722,-143.918 170.501,-145.661"/>
</g>
<!-- Library2 -->
<g id="node6" class="node"><title>Library2</title>
<polygon fill="#672878" stroke="#672878" points="124,-135 60,-135 60,-99 124,-99 124,-135"/>
<text text-anchor="middle" x="92" y="-113.3" font-family="Times,serif" font-size="14.00" fill="white">Library2</text>
</g>
<!-- WindowsApp1&#45;&gt;Library2 -->
<g id="edge4" class="edge"><title>WindowsApp1&#45;&gt;Library2</title>
<path fill="none" stroke="black" d="M140.18,-170.697C132.43,-162.22 122.961,-151.864 114.476,-142.583"/>
<polygon fill="black" stroke="black" points="116.969,-140.123 107.638,-135.104 111.803,-144.846 116.969,-140.123"/>
</g>
<!-- Library1&#45;&gt;Newtonsoft.Json -->
<g id="edge5" class="edge"><title>Library1&#45;&gt;Newtonsoft.Json</title>
<path fill="none" stroke="black" d="M174,-98.822C174,-88.1903 174,-74.306 174,-62.2035"/>
<polygon fill="black" stroke="black" points="177.5,-62.1532 174,-52.1533 170.5,-62.1533 177.5,-62.1532"/>
</g>
<!-- Library2&#45;&gt;Newtonsoft.Json -->
<g id="edge6" class="edge"><title>Library2&#45;&gt;Newtonsoft.Json</title>
<path fill="none" stroke="black" d="M109.39,-98.822C121.023,-87.3312 136.502,-72.0409 149.393,-59.3072"/>
<polygon fill="black" stroke="black" points="151.98,-61.6709 156.635,-52.1533 147.061,-56.6908 151.98,-61.6709"/>
</g>
<!-- Library2&#45;&gt;FSharp.Core -->
<g id="edge7" class="edge"><title>Library2&#45;&gt;FSharp.Core</title>
<path fill="none" stroke="black" d="M85.0015,-98.822C80.5826,-87.9756 74.7845,-73.7437 69.785,-61.4723"/>
<polygon fill="black" stroke="black" points="73.0027,-60.0936 65.9884,-52.1533 66.5201,-62.7347 73.0027,-60.0936"/>
</g>
</g>
</svg>
